<svg width="49" height="28" viewBox="0 0 49 28" fill="none" xmlns="http://www.w3.org/2000/svg">
<path d="M14.3256 14.4286C14.3256 16.317 12.7854 17.8571 10.897 17.8571C9.00865 17.8571 7.46847 16.317 7.46847 14.4286C7.46847 12.5402 9.00865 11 10.897 11C12.7854 11 14.3256 12.5402 14.3256 14.4286ZM16.1738 14.4286C16.1738 11.5089 13.8167 9.15178 10.897 9.15178C7.9774 9.15178 5.62026 11.5089 5.62026 14.4286C5.62026 17.3482 7.9774 19.7054 10.897 19.7054C13.8167 19.7054 16.1738 17.3482 16.1738 14.4286ZM17.6203 8.9375C17.6203 8.25446 17.0712 7.70536 16.3881 7.70536C15.7051 7.70536 15.156 8.25446 15.156 8.9375C15.156 9.62053 15.7051 10.1696 16.3881 10.1696C17.0712 10.1696 17.6203 9.62053 17.6203 8.9375ZM10.897 5.99107C12.397 5.99107 15.6113 5.87053 16.964 6.40625C17.4328 6.59375 17.781 6.82143 18.1426 7.18303C18.5042 7.54464 18.7319 7.89286 18.9194 8.36161C19.4551 9.71428 19.3345 12.9286 19.3345 14.4286C19.3345 15.9286 19.4551 19.1429 18.9194 20.4955C18.7319 20.9643 18.5042 21.3125 18.1426 21.6741C17.781 22.0357 17.4328 22.2634 16.964 22.4509C15.6113 22.9866 12.397 22.8661 10.897 22.8661C9.39704 22.8661 6.18276 22.9866 4.83008 22.4509C4.36133 22.2634 4.01311 22.0357 3.65151 21.6741C3.2899 21.3125 3.06222 20.9643 2.87472 20.4955C2.33901 19.1429 2.45954 15.9286 2.45954 14.4286C2.45954 12.9286 2.33901 9.71428 2.87472 8.36161C3.06222 7.89286 3.2899 7.54464 3.65151 7.18303C4.01311 6.82143 4.36133 6.59375 4.83008 6.40625C6.18276 5.87053 9.39704 5.99107 10.897 5.99107ZM21.1828 14.4286C21.1828 13.0089 21.1962 11.6027 21.1158 10.183C21.0354 8.53571 20.6604 7.07589 19.4551 5.87053C18.2497 4.66518 16.7899 4.29018 15.1426 4.20982C13.7229 4.12946 12.3167 4.14286 10.897 4.14286C9.4774 4.14286 8.07115 4.12946 6.65151 4.20982C5.00419 4.29018 3.54436 4.66518 2.33901 5.87053C1.13365 7.07589 0.75865 8.53571 0.678292 10.183C0.597935 11.6027 0.611328 13.0089 0.611328 14.4286C0.611328 15.8482 0.597935 17.2545 0.678292 18.6741C0.75865 20.3214 1.13365 21.7812 2.33901 22.9866C3.54436 24.192 5.00419 24.567 6.65151 24.6473C8.07115 24.7277 9.4774 24.7143 10.897 24.7143C12.3167 24.7143 13.7229 24.7277 15.1426 24.6473C16.7899 24.567 18.2497 24.192 19.4551 22.9866C20.6604 21.7812 21.0354 20.3214 21.1158 18.6741C21.1962 17.2545 21.1828 15.8482 21.1828 14.4286Z" fill="#5F2EEA"/>
</svg>
