<svg width="25" height="20" viewBox="0 0 25 20" fill="none" xmlns="http://www.w3.org/2000/svg">
<path d="M22.127 5.125C23.0645 4.42188 23.9082 3.57812 24.5645 2.59375C23.7207 2.96875 22.7363 3.25 21.752 3.34375C22.7832 2.73438 23.5332 1.79688 23.9082 0.625C22.9707 1.1875 21.8926 1.60938 20.8145 1.84375C19.877 0.859375 18.6113 0.296875 17.2051 0.296875C14.4863 0.296875 12.2832 2.5 12.2832 5.21875C12.2832 5.59375 12.3301 5.96875 12.4238 6.34375C8.3457 6.10938 4.68945 4.14062 2.25195 1.1875C1.83008 1.89062 1.5957 2.73438 1.5957 3.67188C1.5957 5.35938 2.43945 6.85938 3.79883 7.75C3.00195 7.70312 2.20508 7.51562 1.54883 7.14062V7.1875C1.54883 9.57812 3.23633 11.5469 5.48633 12.0156C5.11133 12.1094 4.64258 12.2031 4.2207 12.2031C3.89258 12.2031 3.61133 12.1562 3.2832 12.1094C3.89258 14.0781 5.7207 15.4844 7.87695 15.5312C6.18945 16.8438 4.08008 17.6406 1.7832 17.6406C1.36133 17.6406 0.986328 17.5938 0.611328 17.5469C2.76758 18.9531 5.3457 19.75 8.1582 19.75C17.2051 19.75 22.127 12.2969 22.127 5.78125C22.127 5.54688 22.127 5.35938 22.127 5.125Z" fill="#5F2EEA"/>
</svg>
